<mxfile host="drawio-plugin" modified="2023-06-23T11:17:04.511Z" agent="5.0 (X11; Linux x86_64) AppleWebKit/537.36 (KHTML, like Gecko) Chrome/98.0.4758.102 Safari/537.36" etag="_zEDXp2hjwCDFSdpFQQp" version="20.5.3" type="embed"><diagram name="Страница 1" id="90cnd5r8BuIZFoYk-QWT"><mxGraphModel dx="926" dy="724" grid="1" gridSize="10" guides="1" tooltips="1" connect="1" arrows="1" fold="1" page="1" pageScale="1" pageWidth="827" pageHeight="1169" math="0" shadow="0"><root><mxCell id="0"/><mxCell id="1" parent="0"/><mxCell id="CJdXzsDB0pb8-z5r23Xp-12" style="edgeStyle=orthogonalEdgeStyle;rounded=0;orthogonalLoop=1;jettySize=auto;html=1;" parent="1" source="CJdXzsDB0pb8-z5r23Xp-1" target="CJdXzsDB0pb8-z5r23Xp-5" edge="1"><mxGeometry relative="1" as="geometry"/></mxCell><mxCell id="CJdXzsDB0pb8-z5r23Xp-13" style="edgeStyle=orthogonalEdgeStyle;rounded=0;orthogonalLoop=1;jettySize=auto;html=1;exitX=0.5;exitY=1;exitDx=0;exitDy=0;" parent="1" source="CJdXzsDB0pb8-z5r23Xp-1" target="CJdXzsDB0pb8-z5r23Xp-3" edge="1"><mxGeometry relative="1" as="geometry"/></mxCell><mxCell id="CJdXzsDB0pb8-z5r23Xp-14" style="edgeStyle=orthogonalEdgeStyle;rounded=0;orthogonalLoop=1;jettySize=auto;html=1;exitX=0.5;exitY=1;exitDx=0;exitDy=0;entryX=0.5;entryY=0;entryDx=0;entryDy=0;" parent="1" source="CJdXzsDB0pb8-z5r23Xp-1" target="CJdXzsDB0pb8-z5r23Xp-7" edge="1"><mxGeometry relative="1" as="geometry"/></mxCell><mxCell id="CJdXzsDB0pb8-z5r23Xp-15" style="edgeStyle=orthogonalEdgeStyle;rounded=0;orthogonalLoop=1;jettySize=auto;html=1;exitX=0.5;exitY=1;exitDx=0;exitDy=0;" parent="1" source="CJdXzsDB0pb8-z5r23Xp-1" target="CJdXzsDB0pb8-z5r23Xp-4" edge="1"><mxGeometry relative="1" as="geometry"/></mxCell><mxCell id="CJdXzsDB0pb8-z5r23Xp-1" value="main.js" style="rounded=0;whiteSpace=wrap;html=1;" parent="1" vertex="1"><mxGeometry x="390" y="300" width="120" height="60" as="geometry"/></mxCell><mxCell id="CJdXzsDB0pb8-z5r23Xp-3" value="api.js" style="rounded=0;whiteSpace=wrap;html=1;" parent="1" vertex="1"><mxGeometry x="300" y="400" width="120" height="60" as="geometry"/></mxCell><mxCell id="CJdXzsDB0pb8-z5r23Xp-16" style="edgeStyle=orthogonalEdgeStyle;rounded=0;orthogonalLoop=1;jettySize=auto;html=1;exitX=0.5;exitY=1;exitDx=0;exitDy=0;entryX=0.5;entryY=0;entryDx=0;entryDy=0;" parent="1" source="CJdXzsDB0pb8-z5r23Xp-4" target="CJdXzsDB0pb8-z5r23Xp-10" edge="1"><mxGeometry relative="1" as="geometry"/></mxCell><mxCell id="CJdXzsDB0pb8-z5r23Xp-17" style="edgeStyle=orthogonalEdgeStyle;rounded=0;orthogonalLoop=1;jettySize=auto;html=1;exitX=0.5;exitY=1;exitDx=0;exitDy=0;entryX=0.5;entryY=0;entryDx=0;entryDy=0;" parent="1" source="CJdXzsDB0pb8-z5r23Xp-4" target="CJdXzsDB0pb8-z5r23Xp-9" edge="1"><mxGeometry relative="1" as="geometry"/></mxCell><mxCell id="CJdXzsDB0pb8-z5r23Xp-18" style="edgeStyle=orthogonalEdgeStyle;rounded=0;orthogonalLoop=1;jettySize=auto;html=1;exitX=0.5;exitY=1;exitDx=0;exitDy=0;entryX=0.5;entryY=0;entryDx=0;entryDy=0;" parent="1" source="CJdXzsDB0pb8-z5r23Xp-4" target="CJdXzsDB0pb8-z5r23Xp-8" edge="1"><mxGeometry relative="1" as="geometry"><Array as="points"><mxPoint x="200" y="480"/><mxPoint x="440" y="480"/></Array></mxGeometry></mxCell><mxCell id="CJdXzsDB0pb8-z5r23Xp-4" value="form.js" style="rounded=0;whiteSpace=wrap;html=1;" parent="1" vertex="1"><mxGeometry x="140" y="400" width="120" height="60" as="geometry"/></mxCell><mxCell id="CJdXzsDB0pb8-z5r23Xp-5" value="message.js" style="rounded=0;whiteSpace=wrap;html=1;" parent="1" vertex="1"><mxGeometry x="460" y="400" width="120" height="60" as="geometry"/></mxCell><mxCell id="CJdXzsDB0pb8-z5r23Xp-19" style="edgeStyle=orthogonalEdgeStyle;rounded=0;orthogonalLoop=1;jettySize=auto;html=1;exitX=0.5;exitY=1;exitDx=0;exitDy=0;entryX=0.5;entryY=0;entryDx=0;entryDy=0;" parent="1" source="CJdXzsDB0pb8-z5r23Xp-6" target="CJdXzsDB0pb8-z5r23Xp-8" edge="1"><mxGeometry relative="1" as="geometry"/></mxCell><mxCell id="CJdXzsDB0pb8-z5r23Xp-6" value="modal.js" style="rounded=0;whiteSpace=wrap;html=1;" parent="1" vertex="1"><mxGeometry x="620" y="500" width="120" height="60" as="geometry"/></mxCell><mxCell id="CJdXzsDB0pb8-z5r23Xp-20" style="edgeStyle=orthogonalEdgeStyle;rounded=0;orthogonalLoop=1;jettySize=auto;html=1;exitX=0.5;exitY=1;exitDx=0;exitDy=0;entryX=0.5;entryY=0;entryDx=0;entryDy=0;" parent="1" source="CJdXzsDB0pb8-z5r23Xp-7" target="CJdXzsDB0pb8-z5r23Xp-6" edge="1"><mxGeometry relative="1" as="geometry"/></mxCell><mxCell id="CJdXzsDB0pb8-z5r23Xp-7" value="picture.js" style="rounded=0;whiteSpace=wrap;html=1;" parent="1" vertex="1"><mxGeometry x="620" y="400" width="120" height="60" as="geometry"/></mxCell><mxCell id="CJdXzsDB0pb8-z5r23Xp-8" value="utils.js" style="rounded=0;whiteSpace=wrap;html=1;" parent="1" vertex="1"><mxGeometry x="380" y="620" width="120" height="60" as="geometry"/></mxCell><mxCell id="CJdXzsDB0pb8-z5r23Xp-9" value="scale.js" style="rounded=0;whiteSpace=wrap;html=1;" parent="1" vertex="1"><mxGeometry x="210" y="500" width="120" height="60" as="geometry"/></mxCell><mxCell id="CJdXzsDB0pb8-z5r23Xp-10" value="slider.js" style="rounded=0;whiteSpace=wrap;html=1;" parent="1" vertex="1"><mxGeometry x="60" y="500" width="120" height="60" as="geometry"/></mxCell><mxCell id="3" style="edgeStyle=orthogonalEdgeStyle;rounded=0;orthogonalLoop=1;jettySize=auto;html=1;entryX=0.5;entryY=0;entryDx=0;entryDy=0;" edge="1" parent="1" source="2" target="CJdXzsDB0pb8-z5r23Xp-1"><mxGeometry relative="1" as="geometry"/></mxCell><mxCell id="2" value="html&lt;br&gt;&amp;lt;script&amp;gt; tag" style="rounded=0;whiteSpace=wrap;html=1;" vertex="1" parent="1"><mxGeometry x="390" y="190" width="120" height="60" as="geometry"/></mxCell><mxCell id="5" style="edgeStyle=orthogonalEdgeStyle;rounded=0;orthogonalLoop=1;jettySize=auto;html=1;entryX=0.5;entryY=0;entryDx=0;entryDy=0;" edge="1" parent="1" source="4" target="2"><mxGeometry relative="1" as="geometry"/></mxCell><mxCell id="4" value="Browser" style="rounded=0;whiteSpace=wrap;html=1;" vertex="1" parent="1"><mxGeometry x="390" y="80" width="120" height="60" as="geometry"/></mxCell><mxCell id="6" value="Загрузка и выполнение" style="text;html=1;align=center;verticalAlign=middle;resizable=0;points=[];autosize=1;strokeColor=none;fillColor=none;" vertex="1" parent="1"><mxGeometry x="290" y="150" width="160" height="30" as="geometry"/></mxCell><mxCell id="7" style="edgeStyle=orthogonalEdgeStyle;rounded=0;orthogonalLoop=1;jettySize=auto;html=1;" edge="1" parent="1" source="11" target="17"><mxGeometry relative="1" as="geometry"/></mxCell><mxCell id="8" style="edgeStyle=orthogonalEdgeStyle;rounded=0;orthogonalLoop=1;jettySize=auto;html=1;exitX=0.5;exitY=1;exitDx=0;exitDy=0;" edge="1" parent="1" source="11" target="12"><mxGeometry relative="1" as="geometry"/></mxCell><mxCell id="9" style="edgeStyle=orthogonalEdgeStyle;rounded=0;orthogonalLoop=1;jettySize=auto;html=1;exitX=0.5;exitY=1;exitDx=0;exitDy=0;entryX=0.5;entryY=0;entryDx=0;entryDy=0;" edge="1" parent="1" source="11" target="21"><mxGeometry relative="1" as="geometry"/></mxCell><mxCell id="10" style="edgeStyle=orthogonalEdgeStyle;rounded=0;orthogonalLoop=1;jettySize=auto;html=1;exitX=0.5;exitY=1;exitDx=0;exitDy=0;" edge="1" parent="1" source="11" target="16"><mxGeometry relative="1" as="geometry"/></mxCell><mxCell id="11" value="main.js" style="rounded=0;whiteSpace=wrap;html=1;" vertex="1" parent="1"><mxGeometry x="1240" y="300" width="120" height="60" as="geometry"/></mxCell><mxCell id="12" value="api.js" style="rounded=0;whiteSpace=wrap;html=1;" vertex="1" parent="1"><mxGeometry x="1150" y="400" width="120" height="60" as="geometry"/></mxCell><mxCell id="13" style="edgeStyle=orthogonalEdgeStyle;rounded=0;orthogonalLoop=1;jettySize=auto;html=1;exitX=0.5;exitY=1;exitDx=0;exitDy=0;entryX=0.5;entryY=0;entryDx=0;entryDy=0;" edge="1" parent="1" source="16" target="24"><mxGeometry relative="1" as="geometry"/></mxCell><mxCell id="14" style="edgeStyle=orthogonalEdgeStyle;rounded=0;orthogonalLoop=1;jettySize=auto;html=1;exitX=0.5;exitY=1;exitDx=0;exitDy=0;entryX=0.5;entryY=0;entryDx=0;entryDy=0;" edge="1" parent="1" source="16" target="23"><mxGeometry relative="1" as="geometry"/></mxCell><mxCell id="15" style="edgeStyle=orthogonalEdgeStyle;rounded=0;orthogonalLoop=1;jettySize=auto;html=1;exitX=0.5;exitY=1;exitDx=0;exitDy=0;entryX=0.5;entryY=0;entryDx=0;entryDy=0;" edge="1" parent="1" source="16" target="22"><mxGeometry relative="1" as="geometry"><Array as="points"><mxPoint x="1050" y="480"/><mxPoint x="1290" y="480"/></Array></mxGeometry></mxCell><mxCell id="16" value="form.js" style="rounded=0;whiteSpace=wrap;html=1;" vertex="1" parent="1"><mxGeometry x="990" y="400" width="120" height="60" as="geometry"/></mxCell><mxCell id="17" value="message.js" style="rounded=0;whiteSpace=wrap;html=1;" vertex="1" parent="1"><mxGeometry x="1310" y="400" width="120" height="60" as="geometry"/></mxCell><mxCell id="18" style="edgeStyle=orthogonalEdgeStyle;rounded=0;orthogonalLoop=1;jettySize=auto;html=1;exitX=0.5;exitY=1;exitDx=0;exitDy=0;entryX=0.5;entryY=0;entryDx=0;entryDy=0;" edge="1" parent="1" source="19" target="22"><mxGeometry relative="1" as="geometry"/></mxCell><mxCell id="19" value="modal.js" style="rounded=0;whiteSpace=wrap;html=1;" vertex="1" parent="1"><mxGeometry x="1470" y="500" width="120" height="60" as="geometry"/></mxCell><mxCell id="20" style="edgeStyle=orthogonalEdgeStyle;rounded=0;orthogonalLoop=1;jettySize=auto;html=1;exitX=0.5;exitY=1;exitDx=0;exitDy=0;entryX=0.5;entryY=0;entryDx=0;entryDy=0;" edge="1" parent="1" source="21" target="19"><mxGeometry relative="1" as="geometry"/></mxCell><mxCell id="21" value="picture.js" style="rounded=0;whiteSpace=wrap;html=1;" vertex="1" parent="1"><mxGeometry x="1470" y="400" width="120" height="60" as="geometry"/></mxCell><mxCell id="22" value="utils.js" style="rounded=0;whiteSpace=wrap;html=1;" vertex="1" parent="1"><mxGeometry x="1230" y="620" width="120" height="60" as="geometry"/></mxCell><mxCell id="23" value="scale.js" style="rounded=0;whiteSpace=wrap;html=1;" vertex="1" parent="1"><mxGeometry x="1060" y="500" width="120" height="60" as="geometry"/></mxCell><mxCell id="24" value="slider.js" style="rounded=0;whiteSpace=wrap;html=1;" vertex="1" parent="1"><mxGeometry x="850" y="500" width="120" height="60" as="geometry"/></mxCell><mxCell id="25" style="edgeStyle=orthogonalEdgeStyle;rounded=0;orthogonalLoop=1;jettySize=auto;html=1;entryX=0.5;entryY=0;entryDx=0;entryDy=0;" edge="1" parent="1" source="26" target="11"><mxGeometry relative="1" as="geometry"/></mxCell><mxCell id="26" value="html&lt;br&gt;&amp;lt;script&amp;gt; tag" style="rounded=0;whiteSpace=wrap;html=1;" vertex="1" parent="1"><mxGeometry x="1240" y="190" width="120" height="60" as="geometry"/></mxCell><mxCell id="27" style="edgeStyle=orthogonalEdgeStyle;rounded=0;orthogonalLoop=1;jettySize=auto;html=1;entryX=0.5;entryY=0;entryDx=0;entryDy=0;" edge="1" parent="1" source="28" target="26"><mxGeometry relative="1" as="geometry"/></mxCell><mxCell id="28" value="Browser" style="rounded=0;whiteSpace=wrap;html=1;" vertex="1" parent="1"><mxGeometry x="1240" y="80" width="120" height="60" as="geometry"/></mxCell><mxCell id="29" value="Загрузка и выполнение" style="text;html=1;align=center;verticalAlign=middle;resizable=0;points=[];autosize=1;strokeColor=none;fillColor=none;" vertex="1" parent="1"><mxGeometry x="1140" y="150" width="160" height="30" as="geometry"/></mxCell><mxCell id="30" value="" style="endArrow=classic;html=1;rounded=0;exitX=1;exitY=0.5;exitDx=0;exitDy=0;entryX=0;entryY=0.5;entryDx=0;entryDy=0;fillColor=#f8cecc;strokeColor=#FF746F;strokeWidth=3;" edge="1" parent="1" source="23" target="19"><mxGeometry width="50" height="50" relative="1" as="geometry"><mxPoint x="1140" y="460" as="sourcePoint"/><mxPoint x="1190" y="410" as="targetPoint"/></mxGeometry></mxCell><mxCell id="31" value="" style="endArrow=classic;html=1;rounded=0;exitX=1;exitY=0.5;exitDx=0;exitDy=0;entryX=0.5;entryY=1;entryDx=0;entryDy=0;fillColor=#f8cecc;strokeColor=#FF746F;strokeWidth=3;" edge="1" parent="1" source="23" target="17"><mxGeometry width="50" height="50" relative="1" as="geometry"><mxPoint x="1190" y="540" as="sourcePoint"/><mxPoint x="1480" y="540" as="targetPoint"/></mxGeometry></mxCell><mxCell id="34" value="" style="endArrow=classic;html=1;rounded=0;exitX=0.5;exitY=0;exitDx=0;exitDy=0;entryX=0.5;entryY=1;entryDx=0;entryDy=0;fillColor=#f8cecc;strokeColor=#FF746F;strokeWidth=3;" edge="1" parent="1" source="22" target="11"><mxGeometry width="50" height="50" relative="1" as="geometry"><mxPoint x="1200" y="550" as="sourcePoint"/><mxPoint x="1490" y="550" as="targetPoint"/></mxGeometry></mxCell><mxCell id="35" value="" style="endArrow=classic;html=1;rounded=0;exitX=1;exitY=0.5;exitDx=0;exitDy=0;entryX=0;entryY=0.5;entryDx=0;entryDy=0;fillColor=#f8cecc;strokeColor=#FF746F;strokeWidth=3;" edge="1" parent="1" source="24" target="23"><mxGeometry width="50" height="50" relative="1" as="geometry"><mxPoint x="1210" y="560" as="sourcePoint"/><mxPoint x="1500" y="560" as="targetPoint"/></mxGeometry></mxCell><mxCell id="36" value="" style="endArrow=classic;html=1;rounded=0;exitX=0;exitY=0.5;exitDx=0;exitDy=0;entryX=1;entryY=0.5;entryDx=0;entryDy=0;fillColor=#f8cecc;strokeColor=#FF746F;strokeWidth=3;" edge="1" parent="1" source="23" target="24"><mxGeometry width="50" height="50" relative="1" as="geometry"><mxPoint x="1220" y="570" as="sourcePoint"/><mxPoint x="1510" y="570" as="targetPoint"/></mxGeometry></mxCell><mxCell id="37" value="" style="endArrow=classic;html=1;rounded=0;exitX=0;exitY=0.5;exitDx=0;exitDy=0;entryX=0.5;entryY=0;entryDx=0;entryDy=0;fillColor=#f8cecc;strokeColor=#FFAC05;strokeWidth=3;" edge="1" parent="1" source="11" target="24"><mxGeometry width="50" height="50" relative="1" as="geometry"><mxPoint x="1230" y="580" as="sourcePoint"/><mxPoint x="1520" y="580" as="targetPoint"/><Array as="points"><mxPoint x="910" y="330"/></Array></mxGeometry></mxCell><mxCell id="38" value="Плохо" style="text;html=1;align=center;verticalAlign=middle;resizable=0;points=[];autosize=1;strokeColor=none;fillColor=none;fontSize=24;fontColor=#FF0808;" vertex="1" parent="1"><mxGeometry x="895" y="15" width="90" height="40" as="geometry"/></mxCell><mxCell id="39" value="Хорошо" style="text;html=1;align=center;verticalAlign=middle;resizable=0;points=[];autosize=1;strokeColor=none;fillColor=none;fontSize=24;fontColor=#047A0F;" vertex="1" parent="1"><mxGeometry x="30" y="40" width="110" height="40" as="geometry"/></mxCell></root></mxGraphModel></diagram></mxfile>